<?xml version="1.0" encoding="UTF-8"?>
<!DOCTYPE svg PUBLIC "-//W3C//DTD SVG 1.1//EN" "http://www.w3.org/Graphics/SVG/1.1/DTD/svg11.dtd">
<svg xmlns="http://www.w3.org/2000/svg" version="1.1" width="1080px" height="1080px" style="shape-rendering:geometricPrecision; text-rendering:geometricPrecision; image-rendering:optimizeQuality; fill-rule:evenodd; clip-rule:evenodd" xmlns:xlink="http://www.w3.org/1999/xlink">
<g><path style="opacity:1" fill="#fefefe" d="M -0.5,-0.5 C 359.5,-0.5 719.5,-0.5 1079.5,-0.5C 1079.5,359.5 1079.5,719.5 1079.5,1079.5C 719.5,1079.5 359.5,1079.5 -0.5,1079.5C -0.5,719.5 -0.5,359.5 -0.5,-0.5 Z"/></g>
<g><path style="opacity:1" fill="#d9d9d9" d="M 666.5,573.5 C 666.209,572.351 665.376,571.684 664,571.5C 661.849,571.227 659.849,570.561 658,569.5C 657.601,569.728 657.435,570.062 657.5,570.5C 653.343,568.565 650.843,565.231 650,560.5C 649.5,532.502 649.333,504.502 649.5,476.5C 655.167,476.5 660.833,476.5 666.5,476.5C 666.333,503.169 666.5,529.835 667,556.5C 669.612,559.576 672.779,560.243 676.5,558.5C 677.8,563.05 677.8,567.55 676.5,572C 673.274,573.199 669.941,573.699 666.5,573.5 Z"/></g>
<g><path style="opacity:1" fill="#dbdbdb" d="M 372.5,535.5 C 370.832,533.142 368.499,531.476 365.5,530.5C 364.817,530.863 364.15,531.196 363.5,531.5C 355.817,528.04 348.15,524.374 340.5,520.5C 338.832,518.142 336.499,516.476 333.5,515.5C 332.817,515.863 332.15,516.196 331.5,516.5C 329.32,515.883 327.32,514.883 325.5,513.5C 324.167,512.833 324.167,512.167 325.5,511.5C 348.469,500.683 371.469,489.85 394.5,479C 395.833,478.333 397.167,478.333 398.5,479C 421.876,490.07 445.21,501.237 468.5,512.5C 445.531,523.651 422.531,534.817 399.5,546C 396.743,546.584 394.077,546.25 391.5,545C 385.202,541.851 378.869,538.685 372.5,535.5 Z"/></g>
<g><path style="opacity:1" fill="#e0e0e0" d="M 511.5,479.5 C 531.5,479.5 551.5,479.5 571.5,479.5C 571.5,480.167 571.5,480.833 571.5,481.5C 551.5,481.5 531.5,481.5 511.5,481.5C 511.5,480.833 511.5,480.167 511.5,479.5 Z"/></g>
<g><path style="opacity:1" fill="#ececec" d="M 571.5,479.5 C 572.488,484.64 572.821,489.974 572.5,495.5C 557.833,495.5 543.167,495.5 528.5,495.5C 542.461,493.517 556.794,492.85 571.5,493.5C 571.5,489.5 571.5,485.5 571.5,481.5C 571.5,480.833 571.5,480.167 571.5,479.5 Z"/></g>
<g><path style="opacity:1" fill="#d8d9d8" d="M 511.5,481.5 C 531.5,481.5 551.5,481.5 571.5,481.5C 571.5,485.5 571.5,489.5 571.5,493.5C 556.794,492.85 542.461,493.517 528.5,495.5C 528.5,502.5 528.5,509.5 528.5,516.5C 542.461,518.483 556.794,519.15 571.5,518.5C 571.5,522.167 571.5,525.833 571.5,529.5C 556.794,528.85 542.461,529.517 528.5,531.5C 528.5,544.5 528.5,557.5 528.5,570.5C 522.833,570.5 517.167,570.5 511.5,570.5C 511.5,540.833 511.5,511.167 511.5,481.5 Z"/></g>
<g><path style="opacity:1" fill="#fefefe" d="M 413.5,498.5 C 416.614,500.542 419.948,502.209 423.5,503.5C 429.435,506.488 435.435,509.488 441.5,512.5C 427.21,519.43 412.876,526.263 398.5,533C 394.432,532.655 390.432,531.655 386.5,530C 374.802,524.151 363.136,518.318 351.5,512.5C 366.031,504.817 380.864,497.817 396,491.5C 402.024,493.431 407.857,495.764 413.5,498.5 Z"/></g>
<g><path style="opacity:1" fill="#e4e4e4" d="M 423.5,503.5 C 419.948,502.209 416.614,500.542 413.5,498.5C 413.56,497.957 413.893,497.624 414.5,497.5C 418.149,498.804 421.149,500.804 423.5,503.5 Z"/></g>
<g><path style="opacity:1" fill="#e0e0e0" d="M 731.5,505.5 C 723.483,505.502 715.483,505.502 707.5,505.5C 710.865,503.961 714.531,503.294 718.5,503.5C 723.093,503.379 727.426,504.046 731.5,505.5 Z"/></g>
<g><path style="opacity:1" fill="#e4e4e4" d="M 594.5,505.5 C 588.732,506.126 583.066,506.793 577.5,507.5C 576.596,506.791 576.263,505.791 576.5,504.5C 582.69,504.177 588.69,504.51 594.5,505.5 Z"/></g>
<g><path style="opacity:1" fill="#e4e4e4" d="M 640.5,507.5 C 635.025,506.511 629.358,506.178 623.5,506.5C 623.611,505.883 623.944,505.383 624.5,505C 630.157,504.501 635.824,504.334 641.5,504.5C 641.737,505.791 641.404,506.791 640.5,507.5 Z"/></g>
<g><path style="opacity:1" fill="#d9d9d9" d="M 594.5,505.5 C 599.373,519.62 604.54,533.62 610,547.5C 614.209,533.706 618.709,520.039 623.5,506.5C 629.358,506.178 635.025,506.511 640.5,507.5C 630.756,536.228 619.923,564.561 608,592.5C 604.923,596.286 601.089,598.952 596.5,600.5C 592.784,599.343 589.117,599.343 585.5,600.5C 583.387,596.419 581.72,592.086 580.5,587.5C 586.622,589.423 592.289,588.59 597.5,585C 596.944,584.617 596.611,584.117 596.5,583.5C 599.514,579.291 601.014,574.625 601,569.5C 592.862,548.915 585.028,528.248 577.5,507.5C 583.066,506.793 588.732,506.126 594.5,505.5 Z"/></g>
<g><path style="opacity:1" fill="#dadada" d="M 707.5,505.5 C 715.483,505.502 723.483,505.502 731.5,505.5C 746.323,511.172 753.99,522.005 754.5,538C 754.391,554.926 746.391,566.093 730.5,571.5C 730.083,570.876 729.416,570.543 728.5,570.5C 722.68,571.081 717.013,571.747 711.5,572.5C 693.25,567.884 683.916,556.05 683.5,537C 684.901,521.324 692.901,510.824 707.5,505.5 Z"/></g>
<g><path style="opacity:1" fill="#dedede" d="M 528.5,516.5 C 543.206,515.85 557.539,516.517 571.5,518.5C 556.794,519.15 542.461,518.483 528.5,516.5 Z"/></g>
<g><path style="opacity:1" fill="#e3e3e3" d="M 340.5,520.5 C 337.428,519.15 334.428,517.817 331.5,516.5C 332.15,516.196 332.817,515.863 333.5,515.5C 336.499,516.476 338.832,518.142 340.5,520.5 Z"/></g>
<g><path style="opacity:1" fill="#fefefe" d="M 713.5,518.5 C 730.876,517.71 739.043,526.043 738,543.5C 731.394,558.893 720.894,562.393 706.5,554C 698.558,543.65 698.558,533.317 706.5,523C 708.898,521.476 711.231,519.976 713.5,518.5 Z"/></g>
<g><path style="opacity:1" fill="#dbdbdb" d="M 383.5,566.5 C 381.149,563.804 378.149,561.804 374.5,560.5C 373.893,560.624 373.56,560.957 373.5,561.5C 358.756,555.029 344.09,548.362 329.5,541.5C 328.618,539.616 327.118,538.283 325,537.5C 324.192,533.973 324.359,530.64 325.5,527.5C 349.114,538.07 372.781,548.737 396.5,559.5C 420.495,548.503 444.495,537.503 468.5,526.5C 469.492,530.783 469.826,535.116 469.5,539.5C 445.004,550.328 420.504,561.328 396,572.5C 391.947,570.285 387.78,568.285 383.5,566.5 Z"/></g>
<g><path style="opacity:1" fill="#eeeeee" d="M 571.5,529.5 C 557.539,531.483 543.206,532.15 528.5,531.5C 542.461,529.517 556.794,528.85 571.5,529.5 Z"/></g>
<g><path style="opacity:1" fill="#e3e3e3" d="M 372.5,535.5 C 369.428,534.15 366.428,532.817 363.5,531.5C 364.15,531.196 364.817,530.863 365.5,530.5C 368.499,531.476 370.832,533.142 372.5,535.5 Z"/></g>
<g><path style="opacity:1" fill="#e6e6e6" d="M 325.5,527.5 C 324.359,530.64 324.192,533.973 325,537.5C 327.118,538.283 328.618,539.616 329.5,541.5C 327.685,540.37 325.685,539.704 323.5,539.5C 323.174,535.116 323.508,530.783 324.5,526.5C 325.107,526.624 325.44,526.957 325.5,527.5 Z"/></g>
<g><path style="opacity:1" fill="#dbdbdb" d="M 331.5,567.5 C 329.924,565.269 327.757,563.603 325,562.5C 324.192,558.973 324.359,555.64 325.5,552.5C 349.212,563.177 372.879,573.844 396.5,584.5C 420.663,573.889 444.663,562.889 468.5,551.5C 469.492,555.783 469.826,560.116 469.5,564.5C 445.004,575.328 420.504,586.328 396,597.5C 374.308,587.776 352.808,577.776 331.5,567.5 Z"/></g>
<g><path style="opacity:1" fill="#e4e4e4" d="M 383.5,566.5 C 379.912,565.202 376.579,563.536 373.5,561.5C 373.56,560.957 373.893,560.624 374.5,560.5C 378.149,561.804 381.149,563.804 383.5,566.5 Z"/></g>
<g><path style="opacity:1" fill="#e6e6e6" d="M 325.5,552.5 C 324.359,555.64 324.192,558.973 325,562.5C 327.757,563.603 329.924,565.269 331.5,567.5C 328.81,566.454 326.143,565.454 323.5,564.5C 323.174,560.116 323.508,555.783 324.5,551.5C 325.107,551.624 325.44,551.957 325.5,552.5 Z"/></g>
<g><path style="opacity:1" fill="#e4e4e4" d="M 666.5,573.5 C 662.845,574.075 659.845,573.075 657.5,570.5C 657.435,570.062 657.601,569.728 658,569.5C 659.849,570.561 661.849,571.227 664,571.5C 665.376,571.684 666.209,572.351 666.5,573.5 Z"/></g>
<g><path style="opacity:1" fill="#f1f1f1" d="M 511.5,479.5 C 511.5,480.167 511.5,480.833 511.5,481.5C 511.5,511.167 511.5,540.833 511.5,570.5C 517.167,570.5 522.833,570.5 528.5,570.5C 526.085,571.814 523.252,572.481 520,572.5C 516.914,572.478 513.914,572.145 511,571.5C 510.169,540.664 510.336,509.997 511.5,479.5 Z"/></g>
<g><path style="opacity:1" fill="#e2e2e2" d="M 730.5,571.5 C 724.251,573.622 717.917,573.955 711.5,572.5C 717.013,571.747 722.68,571.081 728.5,570.5C 729.416,570.543 730.083,570.876 730.5,571.5 Z"/></g>
<g><path style="opacity:1" fill="#e1e1e1" d="M 596.5,583.5 C 596.611,584.117 596.944,584.617 597.5,585C 592.289,588.59 586.622,589.423 580.5,587.5C 579.15,586.35 579.316,585.683 581,585.5C 586.549,587.2 591.716,586.533 596.5,583.5 Z"/></g>
<g><path style="opacity:1" fill="#efefef" d="M 596.5,600.5 C 592.833,601.833 589.167,601.833 585.5,600.5C 589.117,599.343 592.784,599.343 596.5,600.5 Z"/></g>
</svg>
